<?xml version="1.0" encoding="utf-8"?>
<!-- Generator: Adobe Illustrator 23.0.2, SVG Export Plug-In . SVG Version: 6.00 Build 0)  -->
<svg version="1.1" id="no_connection" xmlns="http://www.w3.org/2000/svg" xmlns:xlink="http://www.w3.org/1999/xlink" x="0px" y="0px" viewBox="0 0 1080 1080" style="enable-background:new 0 0 1080 1080;" xml:space="preserve">

<title>no connection</title>
<g>
	<path d="M501,416.3l12.5-20.3c0.2-0.4,0.8-0.5,1.1-0.3s0.5,0.6,0.3,1l-8.6,22.2c-0.6,1.6-2.3,2.3-3.9,1.7
		c-1.6-0.6-2.3-2.3-1.7-3.9C500.8,416.6,500.9,416.4,501,416.3z" style="fill:#10294C;"/>
	<path d="M514.1,423.6l11.3-3c0.4-0.1,0.9,0.2,1,0.6c0.1,0.3,0,0.7-0.3,0.9l-9.4,6.9c-1.4,1-3.3,0.7-4.3-0.7
		c-1-1.4-0.7-3.3,0.7-4.3l0,0C513.4,423.8,513.7,423.7,514.1,423.6z" style="fill:#10294C;"/>
	<path d="M487.4,417.6l-1.1-11.6c0-0.5,0.3-0.9,0.8-0.9c0.3,0,0.7,0.2,0.8,0.5l5.3,10.4c0.8,1.5,0.2,3.3-1.3,4.1
		s-3.3,0.2-4.1-1.3C487.5,418.4,487.4,418,487.4,417.6z" style="fill:#10294C;"/>
	<path d="M493.4,458.4l-12.1,20.5c-0.2,0.4-0.7,0.5-1.1,0.3l0,0c-0.3-0.2-0.5-0.6-0.4-1l8.2-22.4
		c0.6-1.6,2.3-2.4,3.9-1.8s2.4,2.3,1.8,3.9C493.5,458,493.4,458.2,493.4,458.4z" style="fill:#10294C;"/>
	<path d="M480.1,451.3l-11.2,3.1c-0.5,0.1-0.9-0.2-1-0.6c-0.1-0.3,0-0.7,0.3-0.9l9.3-7c1.3-1,3.3-0.7,4.3,0.6
		s0.7,3.3-0.6,4.3C480.8,451,480.5,451.2,480.1,451.3z" style="fill:#10294C;"/>
	<path d="M507.9,456.8l1.3,11.6c0,0.5-0.3,0.9-0.8,0.9c-0.3,0-0.7-0.1-0.8-0.5l-5.4-10.3c-0.8-1.5-0.2-3.3,1.3-4.1
		s3.3-0.2,4.1,1.3C507.7,456,507.8,456.4,507.9,456.8z" style="fill:#10294C;"/>
</g>
<g>
	<path d="M713.5,289c-9.2-6.7-20-11.2-30.8-14.8c-11.1-3.7-22.4-6.8-33.8-9c-12.3-2.5-24.7-4.4-37.1-5.9
		c-13.5-1.5-27.1-2.5-40.7-3c-14.2-0.5-28.4-0.6-42.6-0.1c-13.7,0.5-27.3,1.4-40.9,2.9c-12.5,1.4-25,3.2-37.3,5.7
		c-11.4,2.2-22.6,5.1-33.6,8.7c-11,3.7-22.1,8.1-31.7,14.8c-4.4,3.1-9,6.9-11.2,12c-2.3,5.4,0.2,10.6,3.9,14.6
		c3.7,3.8,7.9,7,12.5,9.5c5,2.9,10.2,5.4,15.6,7.5c11.2,4.4,22.7,7.9,34.5,10.5c11.9,2.8,24,4.9,36.1,6.5c13.3,1.8,26.6,3,40,3.7
		c14.1,0.8,28.3,1.1,42.5,0.8c13.9-0.2,27.7-1,41.5-2.2c12.8-1.2,25.6-2.8,38.3-5.1c11.4-2,22.7-4.6,33.8-7.8
		c11.7-3.4,23.4-7.5,34-13.6c4.6-2.5,8.8-5.5,12.5-9.1c3.8-3.9,7.1-9,5.2-14.6C722.3,296.1,717.8,292.1,713.5,289z M548.7,346.9
		c-16.6,0-33.2-0.6-49.8-2c-14.5-1.2-29.1-2.9-43.5-5.5c-11.7-2-23.2-4.7-34.5-8.3c-8.1-2.6-16.3-5.8-23.4-10.6
		c-4.2-2.9-8.8-6.9-9.6-12.3c-0.8-5,2.4-9.4,6-12.5c5.8-5.1,13.2-8.4,20.3-11.1c10.5-3.9,21.2-6.9,32.2-9
		c13.7-2.8,27.5-4.8,41.4-6.2c16.1-1.6,32.3-2.6,48.5-2.9c16.9-0.3,33.8,0,50.7,1c15.1,0.9,30.1,2.4,45.1,4.7
		c12.4,1.8,24.8,4.4,36.9,7.8c9,2.5,18.1,5.6,26.3,10.1c5.1,2.8,10.7,6.5,13.2,11.9c2,4.4,0.8,9.1-2.2,12.7
		c-4.3,5.3-10.9,8.8-17.1,11.5c-9.5,4.1-19.3,7.3-29.4,9.5c-13.1,3.1-26.3,5.4-39.7,7c-15.6,1.9-31.2,3.1-46.9,3.7
		C565.2,346.8,556.9,346.9,548.7,346.9L548.7,346.9z" style="fill:#FFFFFF;"/>
	<path d="M668.1,129.7c-1.4-0.1-2.8-0.2-4.2-0.2c-1.6,0-3.1-0.2-4.7-0.4c-2.6-0.4-5.2-1-7.7-2c-3.8-1.6-7-4.1-10.4-6.4
		c-5.8-3.9-11.9-7.4-18.3-10.5c-8.1-3.9-16.5-7-25.2-9.3c-22.1-5.9-45.3-5.8-67.3,0.5c-6.5,2-12.9,4.3-19.2,6.9
		c-4.5,1.8-9.4,3.1-14.2,2.3c-8.7-1.4-14-8.8-20.3-14.2c-5.6-4.8-11.7-8.8-18.3-12.2c-8.4-4.3-17.4-7.4-26.6-9.5
		c-11.5-2.6-23.2-3.8-34.9-3.6c-6.6,0.1-13.1,1.1-19.3,3c-6.5,1.9-12.7,4.6-18.5,8c-6,3.5-11.6,7.6-16.8,12.3
		c-5.2,4.8-10,10.1-14.1,15.8c-4.2,5.8-7.7,12.1-10.5,18.7s-4.8,13.6-5.9,20.7c-1.1,7.3-1.2,14.6-0.3,21.9c1,7.8,3.1,15.4,6.2,22.6
		c3.5,8,8.1,15.6,13.6,22.4c6.4,7.9,13.8,15.1,21.9,21.4c4.5,3.5,9.2,6.8,14,9.9c0.9-9.2,2.1-18.4,3.7-27.6
		c1.2-6.8,2.1-13.8,6.2-19.5c6.5-9.2,18.3-11.6,28.9-10.4c6.4,0.8,12.7,2.6,18.5,5.4c3.2,1.5,6.3,3.2,9.2,5.1
		c2.8,1.8,5.5,3.7,8.5,5.2c12.3,6.4,26.4,8.4,40.1,7.2c16.4-1.4,32.2-7,46.5-15c5.4-3,10.4-6.6,15.8-9.5c3.6-2,7.4-3.7,11.3-5.2
		c7.6-3,15.6-4.8,23.8-5.4c7.9-0.6,15.9,0.5,23.3,3.3c7.6,2.9,14.3,7.8,19.5,14.1c6.5,7.9,10.5,17.5,13,27.3
		c1.5,6.4,2.5,12.8,3,19.3c0.3,3.7,0.4,7.4,0.5,11.1c0,0.5,0,1,0,1.5s-0.1,0.3,0.4,0.6c0.3,0.1,0.5,0.1,0.8,0.1l3.5,0.6
		c2.3,0.4,4.6,0.9,6.9,1.4c17.3,3.6,34.6,8.3,50.7,15.6c7.6,3.5,15.1,7.7,21.4,13.3c5.8,5.2,10.7,12.3,9.8,20.5
		c-1,9.1-8.5,16.1-15.7,21c-8.4,5.9-18,10.1-27.6,13.6c-12.5,4.5-25.3,8-38.3,10.6c-15.6,3.2-31.4,5.5-47.2,7
		c-17.7,1.7-35.5,2.5-53.3,2.6c-18.1,0.1-36.1-0.7-54.1-2.3c-17.6-1.5-35.1-4.1-52.4-7.8c-8.3-1.8-16.5-3.8-24.5-6.3
		c5.4,2.5,10.9,4.7,16.5,6.6c5.8,2.1,11.6,3.9,17.6,5.6c12.2,3.4,24.6,6.1,37.1,8c12.8,2,25.8,3.4,38.7,4.2s26.2,1.1,39.3,0.9
		c12.8-0.2,25.5-0.9,38.2-2.1c12.2-1.1,24.4-2.6,36.5-4.6c11.1-1.8,22.1-4,33.1-6.7c9.6-2.4,19.2-5.1,28.5-8.4
		c7.8-2.7,15.5-5.9,22.9-9.6c5.7-2.8,11-6.3,15.8-10.4c1.8-1.6,3.5-3.4,4.9-5.4c1.2-1.8,2.2-3.8,3-5.9c2.1-5.4,3.7-10.9,5-16.5
		c1.6-7,2.9-14.1,3.7-21.3c1-8.2,1.5-16.4,1.7-24.6c0.1-8.7-0.3-17.4-1.2-26c-0.9-8.8-2.6-17.5-4.8-26c-2.2-8.4-5.4-16.6-9.3-24.4
		c-3.9-7.6-8.7-14.7-14.4-21c-5.9-6.5-12.9-12-20.6-16.3c-8.5-4.7-17.7-8-27.3-9.8C678.8,130.6,673.5,130,668.1,129.7z" style="fill:#F04E23;"/>
	<path d="M450.2,352.8c20,3.8,40.2,6.4,60.5,7.6c20.9,1.4,41.9,1.6,62.9,0.7c19.5-0.8,38.9-2.6,58.2-5.6
		c16.3-2.4,32.4-6.1,48.1-10.9c11.9-3.7,23.8-8.3,34.3-15c8.5-5.4,18.2-13.6,18.4-24.5c0.2-9.4-7-17-14.1-22.2
		c-7.9-5.8-16.9-10.1-26-13.6c-9.5-3.6-19.2-6.6-29.1-9c-5.1-1.3-10.3-2.4-15.4-3.4c-2.7-0.5-5.4-1-8.1-1.5c-0.3-0.1-0.7,0-0.8-0.3
		c0-0.3,0-0.5,0-0.8c0-0.5,0-1.1,0-1.6c0-1.1,0-2.3-0.1-3.5c-0.5-14.1-2.6-28.7-8.8-41.6c-4.4-9.2-10.9-17.3-19.7-22.5
		c-7.9-4.6-16.8-7-25.9-7c-9.4,0-18.8,1.7-27.5,5c-4.5,1.7-8.8,3.7-13,6c-2.2,1.2-4.3,2.5-6.4,3.9c-4.4,2.9-9,5.5-13.7,7.9
		c-16.3,8.2-34.5,13.4-52.8,12.6c-7.9-0.3-15.6-1.9-23-4.8c-3.5-1.4-6.9-3-10.1-5c-3.4-2.1-6.6-4.4-10.2-6.3
		c-12-6.3-27.5-10.3-40.5-4.8c-5.5,2.4-10,6.7-12.6,12.1c-1.7,3.7-2.4,7.6-3.2,11.6c-1,5.3-1.9,10.7-2.6,16
		c-2.6,19.2-4.1,38.6-4.3,58c-0.1,4.6-0.1,9.1-0.1,13.7c0,2.4,0.4,4.8,1.2,7.1c1.7,4.3,4.4,8.2,7.9,11.3c5.8,5.5,13,9.7,20.2,13.1
		c8.8,4.1,18,7.6,27.4,10.3C430.8,348.6,440.5,350.9,450.2,352.8z M713.5,320.4c-9.2,6.7-20,11.2-30.8,14.9
		c-11.1,3.7-22.4,6.7-33.8,9c-12.3,2.5-24.7,4.4-37.1,5.9c-13.5,1.5-27.1,2.5-40.7,3c-14.2,0.5-28.4,0.6-42.6,0.1
		c-13.7-0.5-27.3-1.4-40.9-2.9c-12.5-1.4-25-3.2-37.3-5.7c-11.4-2.2-22.6-5.1-33.6-8.7c-11-3.7-22.1-8.1-31.7-14.8
		c-4.4-3.1-9-6.9-11.2-12c-2.3-5.4,0.2-10.6,3.9-14.6c3.7-3.7,7.9-6.9,12.5-9.4c5-2.9,10.2-5.4,15.6-7.5
		c11.2-4.4,22.7-7.9,34.5-10.5c11.9-2.8,24-4.9,36.1-6.5c13.3-1.8,26.6-3,40-3.7c14.1-0.8,28.3-1,42.5-0.8c13.9,0.2,27.7,1,41.5,2.2
		c12.8,1.2,25.6,2.8,38.3,5.1c11.4,2,22.7,4.6,33.8,7.8c11.7,3.4,23.4,7.5,34,13.6c4.6,2.5,8.8,5.5,12.5,9.1c3.8,3.9,7.1,9,5.2,14.6
		C722.3,313.3,717.8,317.3,713.5,320.4z" style="fill:#FDB813;"/>
	<path d="M548.7,266.5c-16.6,0-33.2,0.6-49.8,2c-14.5,1.2-29.1,2.9-43.5,5.5c-11.7,2-23.2,4.7-34.5,8.3
		c-8.1,2.6-16.3,5.8-23.4,10.6c-4.2,2.9-8.8,6.9-9.6,12.3c-0.8,5,2.4,9.4,6,12.5c5.8,5.1,13.2,8.4,20.3,11.1
		c10.5,3.9,21.2,6.9,32.2,9c13.7,2.8,27.5,4.8,41.4,6.2c16.1,1.6,32.3,2.6,48.5,2.9c16.9,0.3,33.8,0,50.7-1
		c15.1-0.9,30.1-2.4,45.1-4.7c12.5-1.8,24.8-4.4,37-7.7c9-2.5,18.1-5.6,26.3-10.1c5.1-2.8,10.7-6.5,13.2-11.9
		c2-4.4,0.8-9.1-2.2-12.7c-4.3-5.3-10.9-8.8-17.1-11.5c-9.5-4.1-19.3-7.3-29.4-9.5c-13.1-3.1-26.3-5.4-39.7-7
		c-15.6-1.9-31.2-3.1-46.9-3.7C565.2,266.6,556.9,266.4,548.7,266.5z" style="fill:#10294C;"/>
	<path d="M367.8,315.1l-0.2-0.3L367.8,315.1z" style="fill:#FFFFFF;"/>
	<path d="M367,313.7l-0.1-0.3L367,313.7z" style="fill:#FFFFFF;"/>
	<path d="M366.4,312.3l-0.1-0.3L366.4,312.3z" style="fill:#FFFFFF;"/>
	<path d="M369.7,317.9l-0.2-0.3L369.7,317.9z" style="fill:#FFFFFF;"/>
	<path d="M365.8,310.8l-0.1-0.2L365.8,310.8z" style="fill:#FFFFFF;"/>
	<path d="M365.3,309.3v-0.1V309.3z" style="fill:#FFFFFF;"/>
	<path d="M368.7,316.5c-0.1-0.1-0.1-0.2-0.2-0.3C368.6,316.4,368.6,316.4,368.7,316.5z" style="fill:#FFFFFF;"/>
	<path d="M374.7,323.2l-0.1-0.1L374.7,323.2z" style="fill:#FFFFFF;"/>
	<path d="M377.7,325.8L377.7,325.8L377.7,325.8z" style="fill:#FFFFFF;"/>
	<path d="M370.8,319.3l-0.2-0.3L370.8,319.3z" style="fill:#FFFFFF;"/>
	<path d="M376.2,324.5l-0.1-0.1L376.2,324.5z" style="fill:#FFFFFF;"/>
	<path d="M372,320.6l-0.2-0.2L372,320.6z" style="fill:#FFFFFF;"/>
	<path d="M373.3,321.9l-0.2-0.2L373.3,321.9z" style="fill:#FFFFFF;"/>
	<path d="M483.2,102.6c0,0,11.3,15.9,15.6,24.9s7.8,3.3-4.3-17.7C494.5,109.8,487.2,107.3,483.2,102.6z" style="fill:#10294C;"/>
	<path d="M646.8,124.7c6.3,5.3,11.7,11.6,16.1,18.6c5.2,8.5,11,5-3.6-14.2C655,128.1,650.8,126.6,646.8,124.7z" style="fill:#10294C;"/>
	<path d="M413,92.3h0.9c0.6,0,1.4,0,2.5,0c2.9,0.1,5.8,0.4,8.6,0.8c0.9,0.1,1.8,0.3,2.8,0.5s1.9,0.4,2.9,0.6
		c2,0.4,4.1,1,6.3,1.7s4.4,1.4,6.5,2.3c1.1,0.4,2.2,0.9,3.3,1.4s2.2,1,3.3,1.6s2.1,1.2,3.2,1.7s2.1,1.2,3.1,1.9
		c2,1.3,3.9,2.7,5.7,4.1s3.4,2.9,4.9,4.3c0.7,0.7,1.5,1.4,2.1,2.2l1.9,2.1c1.2,1.3,2.2,2.7,3.1,3.9s1.6,2.2,2.1,3.1
		c1.1,1.8,1.7,2.8,1.7,2.8c0.3,0.6,0.1,1.4-0.5,1.7c-0.5,0.3-1.1,0.2-1.5-0.2v-0.1c0,0-0.8-0.8-2.1-2.4c-0.7-0.8-1.5-1.6-2.5-2.6
		c-0.5-0.5-1-1-1.6-1.5s-1.1-1.1-1.8-1.7l-2-1.8c-0.7-0.6-1.4-1.2-2.2-1.8s-1.6-1.2-2.4-1.8s-1.7-1.2-2.5-1.8s-1.8-1.2-2.7-1.8
		l-2.8-1.7l-2.9-1.7c-1-0.5-2-1.1-3-1.6c-2-1-4.1-2-6.1-2.8s-4.1-1.7-6.1-2.4s-4-1.4-5.8-1.9s-3.6-1.1-5.3-1.5
		c-3.3-0.8-6.1-1.5-8.1-1.8l-2.3-0.4l-0.8-0.1h-0.1c-0.9-0.1-1.5-0.8-1.5-1.7C411.4,92.9,412.1,92.2,413,92.3z" style="fill:#10294C;"/>
	<path d="M444.6,122.9c0.2,0,0.4,0.1,0.5,0.1c0.4,0.1,0.9,0.2,1.5,0.4s1.4,0.4,2.3,0.8s1.9,0.7,2.9,1.2l1.6,0.8l1.7,0.9
		c1.2,0.6,2.3,1.4,3.5,2.1s2.4,1.7,3.5,2.6c1.2,1,2.3,2,3.4,3.1l1.6,1.7c0.5,0.6,1,1.2,1.5,1.8s1,1.2,1.4,1.8l1.2,1.8
		c0.4,0.6,0.8,1.2,1.1,1.8s0.6,1.2,1,1.8s0.6,1.1,0.9,1.7s0.4,1.1,0.6,1.7c0.4,1.1,0.8,2.1,1.1,3s0.4,1.7,0.5,2.4
		c0.3,1.3,0.4,2.1,0.4,2.1c0.1,0.7-0.4,1.4-1.1,1.5c-0.5,0.1-1-0.2-1.3-0.6l-0.1-0.1c0,0-0.4-0.6-1-1.7c-0.3-0.6-0.7-1.2-1-2
		s-1-1.5-1.5-2.4c-0.3-0.4-0.5-0.9-0.9-1.4s-0.7-0.9-1-1.4l-1.1-1.5c-0.4-0.5-0.8-1-1.2-1.5l-1.2-1.5c-0.4-0.5-0.9-1-1.4-1.5
		l-1.4-1.5l-1.5-1.4c-1-1-2-1.9-3-2.8s-2.1-1.7-3.1-2.6s-2-1.6-3-2.3s-1.9-1.4-2.8-1.9s-1.7-1.1-2.4-1.6s-1.4-0.9-1.9-1.2
		s-0.9-0.6-1.2-0.7l-0.5-0.3c-0.8-0.5-1-1.4-0.5-2.2C443.4,123.1,444,122.8,444.6,122.9L444.6,122.9z" style="fill:#10294C;"/>
	<path d="M682.4,149.5c1.6,1,3,2.3,4,3.9c1.1,1.5,1.9,3.2,2.4,5s0.7,3.7,0.6,5.6c-0.1,1.9-0.7,3.7-1.6,5.4
		c-0.4,0.6-1.2,0.8-1.8,0.5c-0.3-0.2-0.5-0.5-0.6-0.8v-0.2c-0.4-1.6-0.6-3.1-1-4.5s-0.7-2.8-1.2-4.2s-0.9-2.7-1.5-4.1
		s-1.1-2.9-1.5-4.4l-0.1-0.3c-0.2-0.9,0.3-1.8,1.1-2C681.5,149.3,682,149.3,682.4,149.5z" style="fill:#10294C;"/>
	<path d="M730.8,407.4l-0.1-0.1h-0.1l0,0c-5.2-1.9-9.5-5.7-11.9-10.7l-37.6-79.5l0,0c-2-4.3-1.2-11.8,2-16.8l0.1-0.1
		c0,0,0-0.1,0.1-0.1V300c2.2-3.6,3.3-7.8,3.3-12c0-0.7,0-1.4-0.1-2.1c-11-4.5-25.5-8.5-42.5-11.6c-1.1,1.5-2,3.2-2.7,5l0,0
		c-2.2,5.8-4.7,9.1-13.5,10.4L533,304.2l0,0c-6.9,1-10.6-3.9-7.6-9.6l0,0l11.5-28c-3.5,0.1-7.3,0.1-10.7,0.3l-12.8,21.9l0,0
		c-3,5.1-6.9,5.7-13,9h0.2c-7.9,3.3-12.5,11.5-11.2,20c0.2,6.5-1.4,11.5-4.8,14.7L447,368.8l0,0c-4.6,4.4-11.6,1-9.6-6.1l0,0
		l19.7-89.1c-6,1-11.7,2.2-17.1,3.4l-12.1,81.5c-0.9,6.1-3.5,10.4-11.3,14.3l0,0c-11.8,5.5-16.9,19.5-11.4,31.3
		c1.7,3.7,4.4,6.9,7.7,9.2c0,0.2-0.1,0.4-0.1,0.6c-0.6,2.9-0.9,5.8-1,8.7c-0.1,3.4,0.3,6.9,1.2,10.2c1.5,5.9,5.3,11,10.6,14.1
		c1.7,1,3.5,1.8,5.4,2.4l1.4,0.4l0.3,0.1h0.1h0.1l0.3,0.1l0.6,0.1l0.3,0.1l0.4,0.1l0.9,0.1l0.9,0.1h0.8c2.1,0,4.3-0.3,6.3-1
		c3.4-1.2,6.5-2.9,9.4-5c2.6-1.8,4.8-3.5,7-4.9c1.9-1.3,3.9-2.3,6-3.1c1.6-0.6,3.4-1,5.1-1.1c1.3-0.1,2.7,0,4,0.2
		c0.6,0.1,1.6,0.2,1.6,0.3l0,0c3,1,3.2-1.9,1.7-2.2c-1.3-0.2-1-2.5,1.1-1.6c2.4,0.9,4.4-3.4,0.7-4.5c-0.8-0.2-2-0.5-3.5-0.8
		c-2-0.3-4-0.5-6-0.4c-2.6,0.1-5.2,0.6-7.7,1.5c-2.8,1-5.4,2.2-7.9,3.8c-2.5,1.5-5,3.3-7.4,4.8c-2.1,1.5-4.5,2.7-6.9,3.5
		c-1,0.3-2.1,0.4-3.1,0.4H435h-0.3h-0.3h-0.2L434,440l-0.6-0.1l-0.3-0.1l0,0l-0.9-0.3c-1.2-0.4-2.3-0.9-3.3-1.5
		c-0.9-0.6-1.8-1.3-2.6-2.1c-0.7-0.8-1.3-1.7-1.8-2.7c-0.3-0.5-0.5-1-0.7-1.5s-0.4-1.1-0.5-1.6c-0.5-2.3-0.7-4.7-0.6-7
		c0.1-1.9,0.3-3.7,0.7-5.5c1,0.1,2,0.2,3,0.2c12.4,0,22.7-9.6,23.5-22c0.1-0.5,0.2-1.1,0.3-1.6c-0.3-9.3-0.8-16.1,4.2-21l0,0
		l36.9-35.8h-0.1c3.8-3.7,8.5-4.2,13.2-3.5l0,0c1.3,0.3,2.6,0.4,3.9,0.4c2.7,0,5.4-0.6,7.8-1.7l0,0l0,0c0.6-0.3,1.1-0.5,1.6-0.8
		c4.5-2.1,9.1-2.1,12.9-0.1l55.9,29.7l0,0c4.3,2,6.7,5.6,6.7,9.7s0,0.4,0,0.4v0.1c0.7,10.4,9.7,18.3,20.1,17.7
		c2-0.1,3.9-0.6,5.7-1.3c0,0,0.1,0.2,0.2,0.2c5.9-2.4,10.4-2.8,14.6-0.8l0,0l69.5,28.3v-0.1c5,2,6.7,7.4,10,12.4
		c0.1,0.2,0.3,0.4,0.4,0.6l0.2,0.3c0.2,0.3,0.4,0.6,0.7,0.8c5.1,5.8,13.9,6.3,19.7,1.2c5.8-5.1,6.3-13.9,1.2-19.7
		C734.2,409.5,732.5,408.3,730.8,407.4L730.8,407.4z M622.5,345.3c-2,3.4-5.5,5.7-10.8,5.9h0.1c-3,0.1-5.9,0.9-8.5,2.3
		c-0.2,0.1-0.3,0.2-0.5,0.3l0,0c-0.5,0.3-0.9,1-1.4,1.3c-3.1,1.7-6.8,2.1-11.3,0.1l0,0l-55.4-30l0.2-0.2c-5.5-2.9-2.4-6.6,4.6-8
		v-0.2l88.2-17.7l0,0c7.4-1,14.1-0.1,16.1,2.4l0,0c2,2.5,1.2,7.8-2.6,13.8l-18.7,29.8L622.5,345.3z M707.6,407.5l-68-31.6
		c-4.4-2.2-7.6-6.2-9-10.9l0,0c-0.3-1.2-0.8-2.4-1.4-3.6c-0.1-0.2-0.2-0.5-0.3-0.7c-1.7-2.5-1.5-7.1,0.6-10.5l19.2-31.3
		c2.6-4.2,7.1-8,12.7-7.5s9.3,1.6,12.5,8.4l39.1,82.8C714.6,406.5,711.3,409.2,707.6,407.5z" style="fill:#00ACDC;"/>
	<path d="M433.1,402.9c0,3.7-3,6.7-6.7,6.7s-6.7-3-6.7-6.7s3-6.7,6.7-6.7C430.1,396.2,433.1,399.2,433.1,402.9
		L433.1,402.9z" style="fill:#10294C;"/>
	<path d="M677.1,298.9c0,3.7-3,6.7-6.7,6.7s-6.7-3-6.7-6.7s3-6.7,6.7-6.7l0,0C674.1,292.2,677.1,295.2,677.1,298.9z" style="fill:#10294C;"/>
	<path d="M515.1,310.9c0,3.7-3,6.7-6.7,6.7s-6.7-3-6.7-6.7s3-6.7,6.7-6.7C512.1,304.2,515.1,307.2,515.1,310.9
		L515.1,310.9z" style="fill:#10294C;"/>
	<path d="M733.1,419.9c0,3.7-3,6.7-6.7,6.7s-6.7-3-6.7-6.7s3-6.7,6.7-6.7l0,0C730.1,413.2,733.1,416.2,733.1,419.9z" style="fill:#10294C;"/>
	<path d="M442.6,380.9c0,2.2-1.8,3.9-3.9,3.9s-3.9-1.8-3.9-3.9s1.8-3.9,3.9-3.9C440.9,376.9,442.6,378.7,442.6,380.9z" style="fill:#10294C;"/>
	<path d="M614.6,361.9c0,2.2-1.8,3.9-3.9,3.9c-2.2,0-3.9-1.8-3.9-3.9c0-2.2,1.8-3.9,3.9-3.9l0,0
		C612.9,357.9,614.6,359.7,614.6,361.9z" style="fill:#10294C;"/>
	<path d="M624.6,376.9c0,2.2-1.8,3.9-3.9,3.9c-2.2,0-3.9-1.8-3.9-3.9c0-2.2,1.8-3.9,3.9-3.9l0,0
		C622.9,372.9,624.6,374.7,624.6,376.9z" style="fill:#10294C;"/>
	<path d="M657.6,282.9c0,2.2-1.8,3.9-3.9,3.9c-2.2,0-3.9-1.8-3.9-3.9c0-2.2,1.8-3.9,3.9-3.9l0,0
		C655.9,278.9,657.6,280.7,657.6,282.9z" style="fill:#10294C;"/>
	<path d="M417.6,390.9c0,2.2-1.8,3.9-3.9,3.9s-3.9-1.8-3.9-3.9s1.8-3.9,3.9-3.9C415.9,386.9,417.6,388.7,417.6,390.9z" style="fill:#10294C;"/>
</g>
<g>
	<path d="M750.4,577.5c-1.7-4.7-5.5-8.5-9.4-11.7c-5.7-4.4-11.9-8.1-18.5-11c-8.4-3.9-17.1-7.2-26-9.9
		c-10.6-3.3-21.3-6-32.2-8.3c-12.2-2.6-24.5-4.6-36.8-6.2c-13.2-1.7-26.5-2.9-39.8-3.6c-13.8-0.7-27.5-0.9-41.3-0.5
		c-13.9,0.4-27.8,1.4-41.6,3.1c-13.5,1.6-26.9,4-40.1,7.1c-12.6,3-25,6.9-37.1,11.6c-2.8,1.1-5.6,2.2-8.3,3.5
		c15-4.5,30.2-7.9,45.7-10.2c15.3-2.4,30.7-4,46.2-5c16.3-1,32.7-1.4,49-1.1c15.9,0.3,31.7,1.2,47.5,2.9c14.3,1.5,28.5,3.6,42.6,6.5
		c14.2,2.8,28.2,6.7,41.8,11.8c10.3,4,20.6,8.8,29.1,15.9c4.9,4.1,9.4,9.3,10.9,15.7c1.5,6.6-1,13-5.2,18.1
		c-4.6,5.6-10.8,9.8-17.1,13.4c-6.7,3.7-13.7,6.8-20.9,9.4c-14.1,5-28.6,8.9-43.3,11.6c-4,0.8-8,1.5-12,2.1l-2.9,0.5
		c-1.1,0.1-2.2,0.3-3.3,0.5c-0.5,0.2-0.3,0-0.4,0.2c-0.1,0.3-0.1,0.7,0,1v2c0,5.3,0,10.5,0,15.8l0.1,24.5c0,9.3,0,18.7,0,28
		c0,8.7,0,17.4,0,26.1c0,6.4,0,12.9-0.1,19.3c0,1,0,2.1,0,3.1c-0.1,0.8,0.1,1.5,0.7,2.1c2,1.6,5.5,1.3,7.9,1.3c4-0.2,8-0.7,12-1.5
		c3.7-0.7,7.3-1.7,10.8-3c1.1-0.4,2.1-0.9,3.1-1.6c1.2-1,0.8-2.6,0.9-4c0.3-6.3,1.4-12.5,3.3-18.5c3-9,8.9-18.2,19-19.6
		c5.8-0.8,12.4,0.4,17,4c5.2,4.1,7.6,10.7,8.8,17c2,10.9,1.2,22.4-0.1,33.3c-0.9,7.4-2.2,14.8-3.1,22.2c-0.8,6.3-1.3,12.7-1.5,19.1
		c-0.2,9,0.2,18.4,3.3,26.8c2.1,5.8,5.8,11,11.4,13.8c2.7,1.3,5.6,2.2,8.6,2.5c1.7,0.2,3.4,0.3,5.1,0.3c0.5,0,1-0.1,1.4-0.2
		c2.3-0.7,3.8-3,5-5c1.9-3.5,3.3-7.2,4.3-11c1.5-5.3,2.8-10.6,3.7-16c1.3-6.7,2.3-13.5,3.1-20.2c1-7.8,1.8-15.6,2.5-23.5
		c0.8-8.6,1.4-17.2,1.9-25.8c0.6-9,1-18.1,1.3-27.2c0.3-9.2,0.6-18.4,0.7-27.5c0.1-9.1,0.2-18.1,0.1-27.2
		c-0.1-8.6-0.2-17.2-0.5-25.8c-0.2-7.8-0.6-15.7-1.1-23.5c-0.4-6.8-0.9-13.5-1.7-20.3c-0.6-5.4-1.3-10.8-2.2-16.1
		C752.4,584.7,751.5,581.1,750.4,577.5z" style="fill:#F04E23;"/>
	<path d="M709.1,783.4c1.4-8.4,2.2-16.8,2.6-25.2c0.3-6.1,0-12.1-1-18.1c-1.3-7.5-4.4-15.4-11.5-19.1
		c-7.5-4-17.7-3.4-24.2,2.2c-4.7,4.1-7.6,10-9.4,15.9c-1.1,3.5-1.9,7.1-2.4,10.8c-0.3,2-0.5,4-0.7,6c-0.1,1-0.1,1.9-0.2,2.9
		c0,0.4,0,0.9-0.1,1.3c-0.4,1-1.8,1.6-2.7,2c-1.8,0.8-3.6,1.4-5.5,1.9c-4.8,1.3-9.7,2.2-14.7,2.7c-2.2,0.2-4.4,0.3-6.6,0.2
		c-1.5,0-3-0.3-4.4-0.9c-1-0.6-1.2-1.3-1.2-2.4c0-1.3,0-2.6,0-3.9c0.1-8.3,0.1-16.7,0.1-25c0-11.1,0-22.2,0-33.3
		c0-10.7,0-21.3-0.1-32l-0.1-21.5c0-0.9,0-1.8,0-2.7c0-0.3-0.2-1,0-1.3c0.3-0.4,2.2-0.4,2.7-0.5c2.4-0.4,4.9-0.8,7.3-1.2
		c4.8-0.8,9.6-1.7,14.3-2.7c17.8-3.7,35.8-8.6,52.2-16.5c8-3.9,16-8.6,22.1-15.2c5.3-5.8,8.5-13.4,6-21.2c-2.4-7.4-8.6-13-14.8-17.3
		c-5.3-3.6-11-6.8-16.9-9.3c-15.6-7-32.3-11.5-49-14.9c-17.3-3.5-34.9-6-52.5-7.5c-19.6-1.7-39.3-2.3-59-2
		c-19.3,0.3-38.7,1.5-57.9,3.8c-18.7,2.1-37.2,5.6-55.4,10.5c-9,2.4-17.8,5.4-26.5,9c-7.3,2.9-14.2,6.7-20.6,11.2
		c-6.3,4.5-12.6,10.7-14.3,18.6v-0.1c-0.5,2.3-0.9,4.6-1.1,6.9c-0.3,2.1-0.5,4.2-0.8,6.2c-0.4,3.7-0.8,7.4-1.1,11.2
		c-0.5,5.5-0.9,11-1.3,16.4c-0.5,7.3-0.9,14.7-1.3,22c-0.5,9.3-0.8,18.6-1.1,27.9c-0.4,11.4-0.6,22.8-0.7,34.2
		c-0.2,13.4-0.3,26.9-0.2,40.3c0.1,12.8,0.4,25.7,0.9,38.5c0.4,11.1,1,22.2,1.7,33.3c0.6,9.3,1.4,18.6,2.3,27.9
		c0.7,7.5,1.6,15,2.5,22.5c0.7,5.6,1.4,11.3,2.3,16.9c0.6,3.8,1.2,7.5,1.9,11.2c0.3,1.8,0.7,3.6,1,5.5c0.7,3.5,1.7,7,2.8,10.5
		c1.8,5.6,4.1,11.1,6.9,16.3s6,10.1,9.6,14.7c3.7,4.7,7.7,9.1,12,13.1c4.4,4.2,9.1,8,14.1,11.6c5.1,3.6,10.4,7,15.9,10
		c5.7,3.1,11.5,5.9,17.5,8.4c6.1,2.6,12.4,4.8,18.8,6.8c6.5,2,13.2,3.8,19.8,5.3s13.7,2.7,20.6,3.7s14,1.7,21.1,2.1
		s14.2,0.6,21.4,0.5s14.2-0.5,21.3-1.1s14.1-1.5,21-2.7s13.7-2.6,20.5-4.3s13.2-3.7,19.7-6c6.3-2.2,12.5-4.7,18.6-7.6
		c5.9-2.7,11.6-5.8,17.2-9.2c5.4-3.3,10.6-6.9,15.6-10.8c4.9-3.8,9.5-8,13.7-12.5c4.2-4.4,8-9,11.5-14s6.5-10.2,9.1-15.7
		c2.6-5.6,4.8-11.4,6.4-17.4c0.5-1.8,1.2-3.5,1.7-5.3c1.5-5.4,2.8-10.8,3.7-16.4c1.8-10.4,3.1-20.9,4.2-31.5
		c-8.5,0.1-16.8-2.6-21.8-9.9c-2.6-4.1-4.4-8.6-5.3-13.4c-1.2-6.6-1.7-13.2-1.4-19.9C706.4,804.1,707.4,793.7,709.1,783.4z
		 M365,589.2L365,589.2C365,589.4,365,589.2,365,589.2z M421,624.8c-11.5-3.6-23.1-7.9-33.4-14.4c-4.5-2.8-9-6.2-12.1-10.7
		c-1.6-2.1-2.6-4.7-2.8-7.4c0.1-2.7,1-5.3,2.6-7.4c3-4.5,7.6-7.9,12.1-10.8c4.6-2.9,9.5-5.4,14.5-7.6c11.2-4.7,22.7-8.5,34.6-11.3
		c11.7-2.9,23.6-5.1,35.5-6.8c13.1-1.9,26.4-3.2,39.6-4.1c14.1-0.9,28.2-1.3,42.3-1.1c13.9,0.1,27.9,0.7,41.8,1.9
		c13,1.1,26,2.6,38.9,4.8c11.5,1.9,22.9,4.4,34.2,7.4c11.8,3.3,23.6,7.2,34.5,12.9c4.5,2.3,8.8,5.1,12.8,8.3c4,3.4,8.7,8.1,8.6,13.8
		S720,602.6,716,606c-4,3.2-8.3,6-12.9,8.3c-10.9,5.6-22.6,9.6-34.3,12.8c-11.3,3.1-22.8,5.6-34.4,7.5c-12.8,2.1-25.8,3.7-38.8,4.7
		c-13.9,1.1-27.8,1.8-41.8,1.9c-14.1,0.1-28.2-0.3-42.3-1.2c-13.2-0.8-26.5-2.2-39.6-4.1c-11.9-1.7-23.8-3.9-35.5-6.8
		C431.2,627.8,426.1,626.4,421,624.8z M608.8,646L608.8,646z" style="fill:#FDB813;"/>
	<path d="M709.6,590.3c0-5.2-4-9.5-7.8-12.5c-6.5-5-14.3-8.2-21.9-10.9c-10.9-3.7-22-6.6-33.3-8.6
		c-14.1-2.7-28.3-4.5-42.5-5.8c-16.3-1.5-32.8-2.3-49.2-2.4c-16.7-0.2-33.5,0.3-50.1,1.5c-14.9,1-29.7,2.7-44.4,5.1
		c-12.1,1.9-24.1,4.5-35.9,8c-8.5,2.6-17.1,5.7-24.8,10.3c-4.6,2.8-9.8,6.7-11.5,12.1c-1.5,4.8,0.8,9.3,4.1,12.7
		c5.1,5.2,12,8.5,18.6,11.3c10,4,20.3,7.1,30.9,9.3c13.4,2.9,26.9,5.1,40.5,6.6c15.8,1.8,31.7,2.8,47.6,3.3c17,0.5,34,0.3,51-0.5
		c15.4-0.8,30.8-2.1,46-4.3c12.8-1.7,25.5-4.2,38-7.3c9.5-2.5,19-5.5,27.9-9.9c5.5-2.8,11.5-6.3,14.9-11.7
		C708.9,594.6,709.6,592.4,709.6,590.3z" style="fill:#10294C;"/>
	<path d="M713.5,607.9c4.4-3.2,9.2-7.4,10.8-12.8c1.6-5.6-1.9-10.7-5.7-14.4c-7.8-7.7-18.5-12.5-28.5-16.4
		c-11.2-4.3-22.7-7.7-34.4-10.3c-12-2.7-24.1-4.8-36.3-6.4c-13.3-1.7-26.7-2.9-40.1-3.6c-14.2-0.7-28.3-0.9-42.5-0.7
		c-13.8,0.3-27.6,1-41.4,2.3c-12.8,1.2-25.5,2.9-38.1,5.2c-11.4,2-22.6,4.7-33.7,7.9c-11.6,3.5-23.2,7.7-33.6,13.8
		c-8,4.7-21,13.7-15.9,24.5c2.4,4.9,7,8.7,11.4,11.8c4.4,3,9.1,5.5,13.9,7.7c11.1,5,22.7,8.9,34.6,11.8c11.6,3,23.3,5.2,35.2,7
		c13,2,26.2,3.4,39.3,4.3c14,1,28.1,1.4,42.2,1.4c14.1-0.1,28.1-0.6,42-1.6c13.1-1,26.1-2.5,39-4.5c11.7-1.8,23.3-4.2,34.8-7.2
		c11.9-3,23.4-7.1,34.5-12.3C705.2,613.3,709.5,610.8,713.5,607.9z M387.8,590.3c0-5.2,4-9.5,7.9-12.5c6.5-5,14.3-8.2,21.9-10.9
		c10.9-3.7,22-6.6,33.3-8.6c14.1-2.7,28.3-4.5,42.5-5.8c16.3-1.5,32.7-2.3,49.2-2.4c16.7-0.2,33.5,0.3,50.1,1.5
		c14.8,1,29.7,2.7,44.4,5.1c12.1,1.9,24.1,4.6,35.8,8c8.5,2.6,17.2,5.7,24.8,10.3c4.6,2.8,9.8,6.7,11.5,12.1
		c1.5,4.8-0.8,9.3-4.1,12.7c-5.1,5.2-12,8.5-18.6,11.3c-10,4-20.3,7.1-30.8,9.3c-13.4,2.9-26.9,5.1-40.6,6.6
		c-15.8,1.8-31.7,2.8-47.6,3.3c-17,0.5-34,0.3-51-0.5c-15.4-0.8-30.8-2.1-46-4.3c-12.8-1.7-25.5-4.2-38-7.3
		c-9.5-2.5-19.1-5.5-27.9-9.9c-5.5-2.8-11.5-6.3-14.9-11.7C388.5,594.6,387.8,592.5,387.8,590.3z" style="fill:#FFFFFF;"/>
	<path d="M693.7,522.9c-2,0-4,0.3-5.9,0.9l0,0c-5.7,2.1-10.3,3.4-16.1-0.1l0,0L618.4,491c-5.5-3.4-7.2-8.3-8.5-14.4
		c-0.2-1-0.4-2-0.5-3.1l0,0c0-0.1-0.2-0.3-0.2-0.4c-2.9-10.2-12.2-17.2-22.7-17.2c-0.8,0-1.7,0.1-2.5,0.1c-0.3-0.4-0.6-0.7-1-1
		c-1-0.9-2.1-1.8-3.2-2.5l-1.8-1.2l-1.9-1l-1-0.5c-0.3-0.1-0.7-0.3-1-0.4l-2.1-0.8c-0.7-0.2-1.4-0.4-2.2-0.6l-1.1-0.3
		c-0.4-0.1-0.7-0.1-1.1-0.2l-2.2-0.3l-2.3-0.1L562,447h-1c-0.7,0-1.5,0-2.3,0.1c-1.5,0.2-2.9,0.3-4.5,0.6c-0.8,0.1-1.6,0.3-2.3,0.5
		l-1.9,0.5l-3.7,1c-2.1,0.5-4.2,0.9-6.4,1c-1.8,0.1-3.7-0.1-5.5-0.7c-1.7-0.5-3.3-1.2-4.8-2.1s-2.9-1.8-4.1-2.6l-0.5-0.4l0,0
		c-2.4-2-3.8-0.7-4.3-0.2c-1.1,1-2.8,1.2-4.1,0.4c-1.8-1-4.4,1.3-1.5,3.6c0.4,0.4,0.9,0.8,1.6,1.3c0.9,0.8,2,1.7,3.4,2.7
		s2.9,2.2,4.8,3.3c2.1,1.3,4.4,2.4,6.7,3.2c2.7,0.9,5.6,1.4,8.5,1.3c2.9,0,5.8-0.4,8.6-1c0.7-0.1,1.4-0.3,2-0.5l1-0.3l0.8-0.2
		l1.9-0.5c0.6-0.1,1.1-0.1,1.6-0.2c1-0.2,2.2-0.2,3.3-0.3c0.5,0,1.1,0,1.7,0h0.8c0.3,0,0.5,0,0.8,0.1l1.6,0.1l1.5,0.3
		c0.3,0,0.5,0.1,0.8,0.1l0.7,0.2c0.5,0.1,1,0.3,1.4,0.4l1.3,0.5c0.2,0.1,0.4,0.2,0.7,0.3l0.6,0.3l1,0.5c-3.9,3-6.8,7.1-8.2,11.9l0,0
		c0,0,0,0,0,0.1c-0.2,0.7-0.4,1.6-0.5,2.3c-1.8,7.8-1.9,12.2-9.8,18.2l0,0l-19,12.4c-5.9,3.9-9.6,3.8-20.2,2.1h-0.1
		c-1.3-0.3-2.7-0.4-4.1-0.5c-10.5,0-19,8.5-19,19c0,2.1,0.3,4.1,1,6.1c0.1,0.3,0.1,0.5,0.3,0.7l0,0c0.3,0.9,0.8,1.8,1.3,2.6
		c2.2,5.1,3.4,11.4,2.4,15.7l-6.5,28.2l0,0c-0.7,3.1-4,8.4-7.7,9.1l0,0c-1.2,0.2-2.3,0.5-3.5,0.9c-0.2,0-0.3,0.1-0.5,0.2
		c-2.6,1.2-8-0.4-10.1-2.6l-70.3-72.8c-2.4-2.5-1.2-4.8-1.2-7l0,0c0-0.9,0.2-1.9,0.2-2.8c0-7.7-6.2-14-13.9-14s-14,6.2-14,13.9
		c0,7.7,6.2,14,13.9,14l0,0c0.7,0,1.4-0.1,2.1-0.2c0.1,0,0.1,0,0.2,0c2.5-0.5,5.8,0.3,7.2,1.7l68.6,71c2.1,2.2,4.5,9.1,3.5,12.6v0.1
		c-2.6,7-1.7,14.9,2.5,21.2c11.2,1.7,23.2,3,35.9,3.9c2.5-2.4,4.5-5.4,5.7-8.6c0,0,0,0,0.1-0.1c0.7-2.3,4-5.9,7.6-6.9l0,0l74.2-14.8
		c4.6-1,9.5,0,13.4,2.6c0.3,0.3,0.7,0.5,1.1,0.7l0,0c4.3,3.4,7.2,5,8.5,10.8l3.2,14.2c4.8-0.6,9.4-1.2,13.9-1.8l-6.3-16.1
		c-1.4-4.1-1.2-8.5,0.7-12.4c0.2-0.3,0.3-0.6,0.4-0.8c0-0.1,0.1-0.2,0.2-0.3l0,0c0.5-1.2,0.8-2.4,1-3.7v-0.2c0.6-3.9,3-7.3,6.5-9.2
		l0,0l39.8-23.3c4-2.3,11.8,0.8,10.1,6.6l-15.7,52.1c3.2-0.8,6.2-1.7,9-2.6l13.9-46.1c1.3-4.4,5.7-7.6,9.8-8.9l0,0
		c9.9-3.4,15.3-14.1,11.9-24.1C708.9,528.3,701.8,523.1,693.7,522.9L693.7,522.9z M590,589.2L590,589.2l-74.2,11.1
		c-3.8,0.6-10.4-2.9-12.9-5.4s-3.5-8.1-2.5-12.2l0,0l9.5-29.5l0,0c1.3-4,3.4-7.6,6.6-9c0.3-0.1,0.5-0.2,0.8-0.3c0,0,0,0,0.1,0
		c3.7-1.1,7.2,0.1,12.3,3l61.7,35.6l0,0C595.5,584.7,594.9,588.2,590,589.2z M668.8,552l-38.7,22.8c-4.2,2.3-9,3-13.6,1.9
		c-1.4-0.5-2.8-0.7-4.3-0.7c-1.1,0-2.2,0.1-3.3,0.4h-0.1c-4.7,0.9-9.7-0.1-13.7-2.8l0,0L536.4,534c-4.3-2.9-7.3-5.9-7.2-9
		s4.4-7.7,10-10.8l0,0l20.8-11.9l0,0c5.3-3,12.2-2.3,19.5-0.5c3.5,1.1,7.2,1.3,10.8,0.8c0.3,0,0.6-0.1,0.9-0.2
		c8.8-1.8,14.4-4.7,23.2,0.1l0,0l53,29.2c3.7,2,7.5,6.4,7.5,10.1C674.8,546.1,672.5,549.9,668.8,552z" style="fill:#00ACDC;"/>
	<path d="M379.7,663c0.4-0.4,0.6-0.6,0.9-0.9s0.6-0.5,0.9-0.7c0.6-0.5,1.1-0.8,1.7-1.2c1.2-0.7,2.4-1.4,3.6-2
		s2.5-1.1,3.7-1.6c1.3-0.5,2.6-0.8,3.9-1.2c5.2-1.2,10.5-1.7,15.8-1.4l2,0.1h1l1,0.1l3.9,0.5c1.3,0.1,2.5,0.5,3.8,0.7l3.8,0.8
		c2.5,0.7,5,1.4,7.4,2.1l7.2,2.6c3.2,1.1,4.9,4.7,3.7,7.8c-1.1,3.2-4.7,4.9-7.9,3.7l0,0l-0.5-0.2l-0.3-0.2l-6.3-3
		c-2.1-0.9-4.3-1.7-6.4-2.5l-3.3-1c-1.1-0.3-2.2-0.7-3.3-1l-3.3-0.8l-0.8-0.2l-0.8-0.1l-1.7-0.2c-4.4-0.7-8.9-0.8-13.3-0.2
		c-1.1,0.2-2.2,0.4-3.2,0.6c-1.1,0.3-2.1,0.6-3.1,1s-2,0.8-3,1.3c-0.4,0.3-0.9,0.5-1.3,0.8l-0.6,0.4c-0.2,0.1-0.4,0.3-0.5,0.3
		l-1.3,0.5c-1.6,0.6-3.4-0.3-4-1.9C378.6,665.1,378.9,663.8,379.7,663L379.7,663z" style="fill:#F04E23;"/>
	<path d="M585.5,705.1l-0.4-0.6c-0.2-0.2-0.4-0.5-0.5-0.7c-0.3-0.5-0.8-0.9-1.2-1.4s-0.9-0.9-1.3-1.3
		c-0.4-0.4-0.9-0.9-1.4-1.3c-1.9-1.6-4-3.1-6.2-4.4c-4.5-2.5-9.3-4.4-14.3-5.6c-1.3-0.3-2.5-0.6-3.8-0.9l-3.8-0.6
		c-0.6-0.1-1.3-0.2-1.9-0.3l-2-0.1l-3.9-0.3c-2.6-0.1-5.3,0-7.9,0l-7.9,0.6h-0.4c-3.4,0.4-6.4-2.1-6.8-5.4s2.1-6.4,5.4-6.8
		c0.1,0,0.3,0,0.4,0h0.5l8.7,0.1c2.9,0.3,5.8,0.4,8.7,0.8l4.3,0.7l2.2,0.3c0.7,0.2,1.4,0.3,2.2,0.5l4.3,1c1.4,0.4,2.8,0.9,4.2,1.4
		c5.6,1.9,11,4.6,15.9,8c2.5,1.7,4.7,3.7,6.8,5.8c0.5,0.5,1.1,1.1,1.5,1.7c0.5,0.6,1,1.1,1.5,1.8s0.9,1.2,1.4,1.9
		c0.2,0.3,0.4,0.6,0.7,1s0.4,0.7,0.7,1.2c0.8,1.6,0.2,3.5-1.4,4.4c-1.4,0.7-3.2,0.3-4.1-1L585.5,705.1z" style="fill:#F04E23;"/>
	<path d="M486.1,822.3c-0.2-1.1-1.3-1.9-2.5-1.7l0,0l0,0c-1.8,0.3-3.6,0.5-5.4,0.5c-0.9,0-1.8-0.1-2.6-0.2l-1.3-0.2
		l-1.3-0.3c-10.2-2.3-17.5-11.4-17.7-21.8c0-3.3,0.7-6.7,2.2-9.7c1.4-3.1,3.6-5.8,6.2-7.9c2.7-2.2,5.9-3.8,9.3-4.6l1.3-0.3l1.3-0.2
		c0.9-0.1,1.8-0.2,2.7-0.2c1.8,0,3.7,0.1,5.5,0.5l0,0c0.9,0.2,1.8-0.5,2-1.4c0.1-0.8-0.3-1.5-1-1.8c-2-0.9-4-1.5-6.1-1.8
		c-0.1,0-0.3,0-0.4,0c0.5-2.8,0.8-5.6,1-8.4c0.3-3.7,0.4-7.4,0.3-11s-0.2-7.4-0.6-11c-0.3-3.7-0.9-7.4-1.7-11
		c-0.2-0.9-1.2-1.5-2.1-1.3c-0.6,0.2-1.1,0.7-1.3,1.3c-0.8,3.6-1.4,7.3-1.7,11c-0.3,3.7-0.5,7.4-0.6,11s0,7.4,0.3,11
		c0.2,2.7,0.5,5.5,1,8.2l-0.8,0.1c-2.2,0.2-4.4,0.7-6.5,1.4c-6.4,2.4-11.7,7-14.9,13c-4.4,8.2-4.5,18.1-0.1,26.3
		c2.1,4.1,5.2,7.5,9,10.1c1.9,1.3,3.9,2.3,6,3.1c2.1,0.7,4.3,1.3,6.5,1.5l1.7,0.2h1.6c1.1,0,2.2-0.1,3.3-0.2
		c2.2-0.3,4.3-0.9,6.3-1.8C485.9,824.2,486.3,823.3,486.1,822.3z" style="fill:#10294C;"/>
	<path d="M691.3,739.4c0.9,2.4,1.4,4.8,1.7,7.4c0.6,4.9,0.6,9.8,0,14.7c-0.3,2.5-0.9,5-1.7,7.4c-0.4,1-1.5,1.5-2.5,1.1
		c-0.5-0.2-0.9-0.6-1.1-1.1c-0.9-2.4-1.4-4.8-1.7-7.4c-0.6-4.9-0.6-9.8,0-14.7c0.3-2.5,0.9-5,1.7-7.4c0.4-1,1.5-1.5,2.4-1.1
		C690.7,738.5,691.1,738.9,691.3,739.4z" style="fill:#F04E23;"/>
	<path d="M465,928.8c2.5,0,5.1,0.2,7.6,0.5s5,0.6,7.5,1s5,0.8,7.5,1.4c2.5,0.5,5,1.2,7.5,2.1l0,0
		c1.1,0.4,1.7,1.7,1.3,2.8c-0.3,0.7-0.8,1.1-1.5,1.3c-2.6,0.6-5.3,0.9-8,0.9c-5.4,0-10.7-0.8-15.8-2.5c-2.6-0.8-5.1-2-7.4-3.6
		c-1-0.7-1.2-2-0.6-2.9c0.4-0.6,1-0.9,1.7-0.9L465,928.8z" style="fill:#10294C;"/>
	<path d="M630,776.9c2.6-0.4,5.2-0.6,7.7-0.9s5.1-0.6,7.6-0.9s5-0.7,7.5-1.2s5-1,7.6-1.5h0.1c0.7-0.1,1.4,0.4,1.5,1.1
		c0.1,0.5-0.1,0.9-0.5,1.2c-2.2,1.8-4.7,3.2-7.3,4.2s-5.3,1.8-8.1,2.2s-5.6,0.6-8.3,0.5c-2.8-0.1-5.6-0.6-8.3-1.5
		c-0.8-0.3-1.3-1.2-1-2c0.2-0.6,0.7-1,1.3-1.1L630,776.9z" style="fill:#F04E23;"/>
	<path d="M495.3,894.5c-4.2-0.3-8.4,0-12.5,0.7c-4.3,0.7-8.4,2.2-12.2,4.3c-1.8,1.1-3.6,2.2-5.3,3.4
		c-0.5,0.3-0.7,0.5-1.1,0.7l-1.1,0.6c-0.8,0.3-1.5,0.6-2.3,0.9c-3.2,0.9-6.5,0.9-8.9-0.6c-1.2-0.8-2.3-1.8-3.1-3
		c-0.4-0.6-0.8-1.3-1.1-2c-0.2-0.3-0.3-0.7-0.5-1.1l-0.3-1.1c-0.3-1.4-0.4-2.8-0.1-4.3c0.3-1.4,0.9-2.7,1.8-3.8s1.9-2,3.2-2.7
		c1.2-0.6,2.5-0.9,3.9-0.8h0.5l1,0.1c0.7,0,1.4,0,2.1,0c1.7-0.2,3.3-0.7,4.7-1.7c1.6-1.1,2.7-2.7,3.2-4.6c0.5-1.7,0.5-3.5,0-5.1
		c-0.5-1.8-1.6-3.4-3.1-4.5c-1.4-1-3-1.6-4.6-1.8c-0.7-0.1-1.5-0.1-2.2-0.1l-1,0.1h-0.5c-0.7,0.1-1.4,0-2.1-0.1
		c-2.9-0.5-5.5-2.2-7.3-4.7c-1.6-2.4-2-5.5-1-8.2l0.4-1.1c0.2-0.3,0.4-0.7,0.5-1l0.3-0.5l0.3-0.4c0.2-0.3,0.4-0.6,0.6-0.9
		c1-1.1,2.2-1.9,3.6-2.4c1.5-0.6,3.1-0.9,4.7-0.9c1.7,0,3.4,0.2,5.1,0.6l1.2,0.3l1.2,0.4c0.4,0.2,0.7,0.3,1.1,0.5l0.5,0.3
		c0.1,0,0.1,0.1,0.2,0.1l0.3,0.2c1.7,1.2,3.5,2.4,5.3,3.4c3.8,2,7.9,3.4,12.1,4.2c4.1,0.7,8.3,0.9,12.4,0.6c0.9,0,1.6-0.7,1.6-1.6
		c0.1-0.9-0.6-1.7-1.6-1.8l0,0l0,0c-7.8-0.5-15.5-2.1-21.7-6.2c-1.6-1-3-2.1-4.6-3.4l-0.3-0.2l-0.4-0.3l-0.8-0.5
		c-0.5-0.3-1.1-0.6-1.6-0.9l-1.6-0.7l-1.6-0.6c-2.2-0.7-4.5-1-6.8-1.1c-2.4-0.1-4.8,0.2-7.1,1c-2.4,0.8-4.6,2.2-6.5,4
		c-0.4,0.5-0.9,0.9-1.3,1.5c-0.2,0.3-0.4,0.5-0.6,0.8l-0.5,0.8c-0.3,0.5-0.6,1.1-0.9,1.7l-0.7,1.7c-1.8,4.9-1.3,10.4,1.5,14.8
		c2.8,4.3,7.2,7.2,12.3,8.2c1.3,0.2,2.6,0.3,3.9,0.3h1h0.5c0.3,0,0.5,0,0.8,0s0.6,0.1,0.9,0.3c0.1,0.1,0.2,0.2,0.2,0.4
		c0.1,0.3,0.1,0.5,0,0.8c0,0.1,0,0.1-0.1,0.1c0,0,0,0-0.1,0.1c-0.3,0.2-0.6,0.3-0.9,0.3s-0.6,0-0.9,0h-0.5h-1
		c-2.7-0.1-5.3,0.5-7.8,1.7c-5.7,6.9-6.9,17-6.3,25.3l0.7,1.1c1.5,2.1,3.5,3.8,5.7,5c2.3,1.2,4.8,1.8,7.4,1.8c2.4,0,4.8-0.4,7.1-1.2
		c1.1-0.4,2.2-0.9,3.2-1.4c0.5-0.3,1-0.6,1.5-0.9s1.1-0.7,1.4-1c1.6-1.2,3-2.3,4.6-3.3c6.2-4,13.8-5.6,21.5-6.1l0,0
		c1.2-0.1,2-1.1,2-2.2c-0.1-1-0.9-1.9-2-2L495.3,894.5z" style="fill:#10294C;"/>
	<path d="M448.4,879.4c-3.2,0-31.4,10-29.7,35.3c1.8,27.5,32.6,16,26.2,2.3c-1.6-4-2.5-8.1-2.8-12.4
		C441.5,896.3,442.7,886.3,448.4,879.4z" style="fill:#00ACDC;"/>
	<path d="M427,911.7c0.3,0.3,0.5,0.6,0.7,0.9c0.1,0.3,0.2,0.6,0.2,0.9c0,0.3-0.1,0.7-0.2,1c-0.1,0.4-0.4,0.8-0.7,1.2
		l-0.1,0.1c-0.4,0.4-1,0.6-1.5,0.3c-0.4-0.2-0.8-0.6-1.1-1c-0.2-0.4-0.4-0.8-0.4-1.2c-0.1-0.4,0-0.9,0.1-1.3c0.2-0.5,0.5-1,0.9-1.3
		c0.5-0.4,1.2-0.3,1.7,0.1L427,911.7z" style="fill:#FFFFFF;"/>
	<path d="M431,898.8c0,0.8-0.2,1.5-0.4,2.3c-0.2,0.7-0.5,1.4-0.8,2.1c-0.3,0.7-0.6,1.4-1,2c-0.4,0.7-0.8,1.4-1.4,2l0,0
		c-0.4,0.4-0.9,0.4-1.4,0.1c-0.1-0.1-0.2-0.3-0.3-0.4c-0.5-1.7-0.4-3.5,0.3-5.2c0.3-0.8,0.7-1.6,1.2-2.3s1.2-1.4,2-1.8
		c0.5-0.3,1.2-0.1,1.5,0.4c0.1,0.2,0.2,0.4,0.2,0.6L431,898.8z" style="fill:#FFFFFF;"/>
	<path d="M692.7,663.8c3.4-1.8,6.8-3.3,10.2-4.8l10.2-4.5c3.4-1.5,6.7-3.1,10-4.7s6.6-3.3,9.9-5.1l0,0
		c0.6-0.3,1.4-0.1,1.7,0.6c0.2,0.5,0.2,1-0.2,1.4c-2.6,2.9-5.6,5.4-8.9,7.5c-3.2,2.2-6.6,4.1-10.1,5.7c-3.5,1.6-7.1,3.1-10.7,4.2
		c-3.6,1.2-7.4,2.1-11.2,2.7c-0.9,0.1-1.7-0.4-1.8-1.3C691.7,664.8,692,664.1,692.7,663.8L692.7,663.8z" style="fill:#10294C;"/>
	<path d="M660,660.2c0.9-0.8,1.9-1.4,3-1.8c1-0.4,2.1-0.8,3.2-1c1.1-0.2,2.2-0.3,3.3-0.4c1.2,0,2.4,0.1,3.5,0.4l0,0
		c0.8,0.2,1.2,1,1,1.8c-0.1,0.2-0.2,0.5-0.4,0.6c-0.9,0.9-1.9,1.6-2.9,2.1s-2.1,0.9-3.2,1.2c-1.1,0.3-2.2,0.5-3.4,0.5
		c-1.2,0.1-2.4-0.1-3.6-0.5c-0.9-0.3-1.5-1.3-1.2-2.3l0,0C659.5,660.7,659.7,660.5,660,660.2L660,660.2z" style="fill:#10294C;"/>
	<path d="M680.3,680.8c2.2-1.2,4.4-2.2,6.8-3.1c2.3-0.9,4.5-1.6,6.8-2.4l6.8-2.2c2.3-0.7,4.5-1.5,6.9-2.2l0,0
		c0.7-0.2,1.4,0.2,1.6,0.9c0.1,0.4,0,0.9-0.3,1.3c-1.8,1.8-3.9,3.4-6.2,4.7c-2.2,1.3-4.5,2.3-6.9,3.2c-2.4,0.8-4.8,1.5-7.3,2
		s-4.9,0.8-7.5,0.8l0,0c-0.9,0-1.6-0.7-1.7-1.6C679.4,681.6,679.7,681.1,680.3,680.8z" style="fill:#10294C;"/>
	<path d="M533.6,816.5c1,1,2.2,2.2,3.4,3.2c0.6,0.5,1.2,1,1.8,1.5c0.3,0.2,0.6,0.5,0.9,0.7l1,0.7
		c2.6,1.8,5.3,3.3,8.1,4.6c1.5,0.6,2.9,1.3,4.4,1.7c0.7,0.2,1.5,0.5,2.2,0.8s1.5,0.4,2.3,0.7c0.4,0.1,0.8,0.2,1.2,0.3
		s0.8,0.2,1.2,0.3l2.4,0.6c1.6,0.3,3.2,0.6,4.9,1h0.1c0.7,0.2,1.1,0.9,0.9,1.6l0,0c-0.1,0.5-0.5,0.8-1,0.9c-1.7,0.3-3.5,0.5-5.2,0.6
		h-2.6c-0.9,0-1.8-0.1-2.6-0.2c-0.9-0.1-1.8-0.2-2.6-0.4c-0.9-0.2-1.8-0.4-2.6-0.6c-1.7-0.4-3.5-1-5.1-1.7c-3.3-1.4-6.4-3.4-9.1-5.8
		c-2.8-2.4-5-5.4-6.4-8.8c-0.3-0.8,0.1-1.7,0.9-2c0.6-0.2,1.2-0.1,1.7,0.4L533.6,816.5z" style="fill:#10294C;"/>
	<path d="M427.4,802.3c-1,1.4-2.1,2.6-3.5,3.6c-1.3,1-2.8,1.8-4.3,2.4c-3,1.3-6.3,1.9-9.6,1.9l-2.4-0.1
		c-0.8-0.1-1.6-0.2-2.4-0.4c-1.6-0.3-3.1-0.7-4.6-1.2c-1.5-0.6-2.9-1.2-4.3-1.9c-1.3-0.8-2.6-1.6-3.9-2.5c-0.6-0.4-0.7-1.2-0.3-1.8
		c0.3-0.4,0.8-0.6,1.3-0.5h0.1c1.5,0.3,2.9,0.6,4.3,1l2.1,0.4c0.7,0.1,1.4,0.3,2.1,0.4c1.4,0.1,2.7,0.5,4.1,0.5c0.7,0,1.3,0.2,2,0.2
		h2c2.6,0,5.2-0.4,7.8-1l1-0.3c0.3-0.1,0.6-0.2,0.9-0.3c0.6-0.2,1.2-0.5,1.9-0.7s1.2-0.5,1.8-0.8c0.3-0.2,0.6-0.3,0.9-0.5
		s0.6-0.3,0.8-0.4l0.4-0.2c0.8-0.3,1.7,0,2,0.8C427.7,801.3,427.6,801.9,427.4,802.3L427.4,802.3z" style="fill:#10294C;"/>
	<path d="M552,707c23.5,5.2,25.7,22.1,25.7,61.8c0,23.3-2.2,37.8-7.9,44.7c-2.7,0.1-5.4-0.2-8-0.9
		c-19.3-4.9-25.7-19.3-25.7-61.8c0-23.4,1.5-37.7,7.1-44.7C546.2,706.1,549.1,706.3,552,707z" style="fill:#FFFFFF;"/>
	<path d="M561.8,812.6c2.6,0.7,5.3,1,8,0.9c-4,4.8-9.8,6-17.8,4c-19.3-4.9-25.7-19.3-25.7-61.8
		c0-33.5,3.1-48.5,16.9-49.6c-5.6,6.9-7.1,21.3-7.1,44.7C536.1,793.4,542.4,807.8,561.8,812.6z" style="fill:#10294C;"/>
	<path d="M408.7,683.5c23.5,5.2,25.7,22.1,25.7,61.8c0,23.3-2.1,37.8-7.9,44.7c-2.7,0.1-5.4-0.2-8-0.9
		c-19.4-4.9-25.7-19.3-25.7-61.8c0-23.4,1.5-37.7,7.1-44.7C402.9,682.5,405.8,682.8,408.7,683.5z" style="fill:#FFFFFF;"/>
	<path d="M418.5,789.1c2.6,0.7,5.3,1,8,0.9c-4,4.8-9.8,6-17.8,4c-19.4-4.9-25.7-19.3-25.7-61.8
		c0-33.5,3.1-48.5,16.9-49.6c-5.6,6.9-7.1,21.3-7.1,44.7C392.9,769.8,399.2,784.2,418.5,789.1z" style="fill:#10294C;"/>
	<path d="M415.1,739.6c0,5.3-0.8,7.1-3.4,6.5s-3.4-2.6-3.4-8.2c0-5.3,0.6-7.1,3.4-6.5
		C414.8,732.1,415.1,734.4,415.1,739.6z" style="fill:#10294C;"/>
	<path d="M558.3,763.2c0,5.3-0.8,7.1-3.4,6.5s-3.4-2.6-3.4-8.2c0-5.3,0.6-7.1,3.4-6.5
		C558,755.7,558.3,757.9,558.3,763.2z" style="fill:#10294C;"/>
	<path d="M597.1,485.9c0,3.7-3,6.7-6.7,6.7s-6.7-3-6.7-6.7s3-6.7,6.7-6.7l0,0C594.1,479.2,597.1,482.2,597.1,485.9z" style="fill:#10294C;"/>
	<path d="M702.1,545.8c0,3.7-3,6.7-6.7,6.7s-6.7-3-6.7-6.7s3-6.7,6.7-6.7l0,0C699.1,539.2,702.1,542.2,702.1,545.8z" style="fill:#10294C;"/>
	<path d="M496.1,602.8c0,3.7-3,6.7-6.7,6.7s-6.7-3-6.7-6.7s3-6.7,6.7-6.7l0,0C493.1,596.2,496.1,599.2,496.1,602.8z" style="fill:#10294C;"/>
	<path d="M389.1,502.9c0,3.7-3,6.7-6.7,6.7s-6.7-3-6.7-6.7s3-6.7,6.7-6.7C386.1,496.2,389.1,499.2,389.1,502.9
		L389.1,502.9z" style="fill:#10294C;"/>
	<path d="M580.6,470.9c0,2.2-1.8,3.9-3.9,3.9c-2.2,0-3.9-1.8-3.9-3.9c0-2.2,1.8-3.9,3.9-3.9l0,0
		C578.9,466.9,580.6,468.7,580.6,470.9z" style="fill:#10294C;"/>
	<path d="M480.6,614.8c0,2.2-1.8,3.9-3.9,3.9c-2.2,0-3.9-1.8-3.9-3.9c0-2.2,1.8-3.9,3.9-3.9l0,0
		C478.9,610.9,480.6,612.7,480.6,614.8z" style="fill:#10294C;"/>
	<path d="M618.6,588.8c0,2.2-1.8,3.9-3.9,3.9c-2.2,0-3.9-1.8-3.9-3.9c0-2.2,1.8-3.9,3.9-3.9l0,0
		C616.9,584.9,618.6,586.7,618.6,588.8z" style="fill:#10294C;"/>
	<path d="M511.6,528.8c0,2.2-1.8,3.9-3.9,3.9c-2.2,0-3.9-1.8-3.9-3.9c0-2.2,1.8-3.9,3.9-3.9l0,0
		C509.9,524.9,511.6,526.7,511.6,528.8z" style="fill:#10294C;"/>
</g>
</svg>
